<svg xmlns="http://www.w3.org/2000/svg" version="1.1" xmlns:xlink="http://www.w3.org/1999/xlink" xmlns:svgjs="http://svgjs.dev/svgjs" width="1000" height="159" viewBox="0 0 1000 159"><g transform="matrix(1,0,0,1,-0.6060606060606233,-0.1441393630100407)"><svg viewBox="0 0 396 63" data-background-color="#ffffff" preserveAspectRatio="xMidYMid meet" height="159" width="1000" xmlns="http://www.w3.org/2000/svg" xmlns:xlink="http://www.w3.org/1999/xlink"><g id="tight-bounds" transform="matrix(1,0,0,1,0.2400000000000091,0.057111823079452506)"><svg viewBox="0 0 395.52 62.88577635384111" height="62.88577635384111" width="395.52"><g><svg viewBox="0 0 513.6727849434386 81.67150048798494" height="62.88577635384111" width="395.52"><g transform="matrix(1,0,0,1,118.15278494343868,11.287450501595604)"><svg viewBox="0 0 395.52 59.096599484793735" height="59.096599484793735" width="395.52"><g><svg viewBox="0 0 395.52 59.096599484793735" height="59.096599484793735" width="395.52"><g><svg viewBox="0 0 395.52 59.096599484793735" height="59.096599484793735" width="395.52"><g transform="matrix(1,0,0,1,0,0)"><svg width="395.52" viewBox="1.25 -36.54999923706055 247.91432189941406 37.04999923706055" height="59.096599484793735" data-palette-color="#f89e00"><g class="undefined-text-0" data-fill-palette-color="primary" id="text-0"><path d="M21.4-9.25L27.4-35 40.75-35 40.75-34.05 38-34.05 38-0.95 40.75-0.95 40.75 0 25.5 0 25.5-0.95 28.25-0.95 28.25-32.2 28.05-32.2 20.55 0 14.3 0 5.5-32.35 5.3-32.35 5.3-0.95 8.05-0.95 8.05 0 1.25 0 1.25-0.95 4-0.95 4-34.05 1.25-34.05 1.25-35 14.75-35 21.4-9.25ZM58.65-9.85L58.65-9.85 58.65-14.1Q58.65-18.95 58.12-21.18 57.6-23.4 55.7-23.4L55.7-23.4Q54.6-23.4 53.92-22.78 53.25-22.15 52.95-20.7L52.95-20.7Q52.5-18.45 52.5-13.85L52.5-13.85 52.5-9.95Q52.5-4.5 52.82-3.4 53.15-2.3 53.5-1.6L53.5-1.6Q54.05-0.4 55.65-0.4L55.65-0.4Q57.6-0.4 58.2-2.65L58.2-2.65Q58.65-4.25 58.65-9.85ZM55.55 0.5Q49.3 0.5 46.1-2.7 42.9-5.9 42.9-11.88 42.9-17.85 46.32-21.08 49.75-24.3 55.95-24.3 62.15-24.3 65.2-21.33 68.25-18.35 68.25-12.25L68.25-12.25Q68.25 0.5 55.55 0.5L55.55 0.5ZM71.2-22.9L69.15-22.9 69.15-23.8 84.1-23.8 84.1-22.9 80.95-22.9 86.95-6.3 92.35-22.9 89-22.9 89-23.8 95.75-23.8 95.75-22.9 93.55-22.9 86.15 0 80.45 0 71.2-22.9ZM103.59-27.25Q100.94-27.25 99.82-28.6 98.69-29.95 98.69-31.95 98.69-33.95 99.92-35.25 101.14-36.55 103.64-36.55 106.14-36.55 107.44-35.38 108.74-34.2 108.74-32.02 108.74-29.85 107.49-28.55 106.24-27.25 103.59-27.25ZM96.04-22.9L96.04-23.8 108.29-23.8 108.29-0.9 111.09-0.9 111.09 0 96.24 0 96.24-0.9 98.99-0.9 98.99-22.9 96.04-22.9ZM125.24 0.5Q118.79 0.5 115.56-2.83 112.34-6.15 112.34-12.08 112.34-18 115.97-21.15 119.59-24.3 125.19-24.3L125.19-24.3Q136.54-24.3 136.09-12.9L136.09-12.9 121.99-12.9 121.99-10.95Q121.99-6.05 123.24-3.55 124.49-1.05 127.59-1.05L127.59-1.05Q133.39-1.05 135.19-7.25L135.19-7.25 136.09-7.1Q135.14-3.5 132.67-1.5 130.19 0.5 125.24 0.5L125.24 0.5ZM122.04-16.35L122.04-13.9 127.19-13.9 127.19-16.35Q127.19-20.4 126.72-21.88 126.24-23.35 124.81-23.35 123.39-23.35 122.72-21.78 122.04-20.2 122.04-16.35L122.04-16.35Z" fill="#f89e00" data-fill-palette-color="primary"></path><path d="M139.307-35L164.057-35 164.057-33.9 149.257-1.15 150.957-1.15Q155.457-1.15 158.887-4.03 162.307-6.9 163.807-12.2L163.807-12.2 164.707-12.2 164.107 0 138.507 0 138.507-0.95 153.457-33.9 151.407-33.9Q146.957-33.9 144.657-31.95 142.357-30 139.457-23.95L139.457-23.95 138.557-23.95 139.307-35ZM183.357-9.85L183.357-9.85 183.357-14.1Q183.357-18.95 182.827-21.18 182.307-23.4 180.407-23.4L180.407-23.4Q179.307-23.4 178.627-22.78 177.957-22.15 177.657-20.7L177.657-20.7Q177.207-18.45 177.207-13.85L177.207-13.85 177.207-9.95Q177.207-4.5 177.527-3.4 177.857-2.3 178.207-1.6L178.207-1.6Q178.757-0.4 180.357-0.4L180.357-0.4Q182.307-0.4 182.907-2.65L182.907-2.65Q183.357-4.25 183.357-9.85ZM180.257 0.5Q174.007 0.5 170.807-2.7 167.607-5.9 167.607-11.88 167.607-17.85 171.027-21.08 174.457-24.3 180.657-24.3 186.857-24.3 189.907-21.33 192.957-18.35 192.957-12.25L192.957-12.25Q192.957 0.5 180.257 0.5L180.257 0.5ZM194.457-22.9L194.457-23.8 206.507-23.8 206.507-19.2Q207.307-21.5 208.947-22.9 210.607-24.3 213.947-24.3L213.947-24.3Q221.697-24.3 221.697-15.95L221.697-15.95 221.697-0.9 224.507-0.9 224.507 0 210.357 0 210.357-0.9 212.407-0.9 212.407-17.15Q212.407-20.15 212.007-21.03 211.607-21.9 210.557-21.9L210.557-21.9Q208.947-21.9 207.727-19.8 206.507-17.7 206.507-14.7L206.507-14.7 206.507-0.9 208.657-0.9 208.657 0 194.457 0 194.457-0.9 197.207-0.9 197.207-22.9 194.457-22.9ZM238.297 0.5Q231.847 0.5 228.627-2.83 225.397-6.15 225.397-12.08 225.397-18 229.027-21.15 232.647-24.3 238.247-24.3L238.247-24.3Q249.597-24.3 249.147-12.9L249.147-12.9 235.047-12.9 235.047-10.95Q235.047-6.05 236.297-3.55 237.547-1.05 240.647-1.05L240.647-1.05Q246.447-1.05 248.247-7.25L248.247-7.25 249.147-7.1Q248.197-3.5 245.727-1.5 243.247 0.5 238.297 0.5L238.297 0.5ZM235.097-16.35L235.097-13.9 240.247-13.9 240.247-16.35Q240.247-20.4 239.777-21.88 239.297-23.35 237.877-23.35 236.447-23.35 235.777-21.78 235.097-20.2 235.097-16.35L235.097-16.35Z" fill="#e65728" data-fill-palette-color="secondary"></path></g></svg></g></svg></g></svg></g></svg></g><g><svg viewBox="0 0 104.20149612346651 81.67150048798494" height="81.67150048798494" width="104.20149612346651"><g><svg xmlns="http://www.w3.org/2000/svg" xmlns:xlink="http://www.w3.org/1999/xlink" version="1.1" x="0" y="0" viewBox="0 0 99.63200378417969 78.09000396728516" enable-background="new 0 0 99.633 78.09" xml:space="preserve" width="104.20149612346651" height="81.67150048798494" class="icon-icon-0" data-fill-palette-color="accent" id="icon-0"><g fill="#ffffff" data-fill-palette-color="accent"><path d="M96.941 0H2.693C1.205 0 0 1.206 0 2.693v56.548c0 1.489 1.205 2.694 2.693 2.694h43.085v10.771h-8.079c-1.488 0-2.693 1.204-2.693 2.692 0 1.485 1.205 2.692 2.693 2.692h21.542c1.488 0 2.692-1.207 2.692-2.692 0-1.488-1.204-2.692-2.692-2.692h-8.078V61.935h45.777c1.488 0 2.692-1.205 2.692-2.694V2.693C99.633 1.206 98.429 0 96.941 0zM94.248 56.548H5.386V5.385h88.861V56.548z" fill="#ffffff" data-fill-palette-color="accent"></path><path d="M43.264 41.276c0.063 0.177 0.155 0.33 0.25 0.488 0.063 0.101 0.084 0.217 0.16 0.311 0.029 0.037 0.074 0.048 0.105 0.082 0.19 0.212 0.413 0.376 0.66 0.521 0.084 0.05 0.153 0.123 0.24 0.163 0.336 0.15 0.705 0.244 1.099 0.244l0 0c0.002 0 0.002 0 0.002 0 0.327 0 0.65-0.073 0.963-0.194 0.116-0.045 0.213-0.116 0.321-0.176 0.131-0.074 0.273-0.121 0.396-0.219l10.771-8.619c0.092-0.074 0.14-0.177 0.219-0.26 0.06-0.064 0.145-0.09 0.202-0.161 0.052-0.066 0.065-0.146 0.11-0.214 0.103-0.154 0.179-0.311 0.247-0.48 0.063-0.159 0.118-0.314 0.149-0.48 0.032-0.17 0.04-0.333 0.043-0.507-0.003-0.173-0.011-0.336-0.043-0.507-0.031-0.166-0.086-0.321-0.149-0.48-0.068-0.169-0.145-0.326-0.247-0.479-0.045-0.069-0.059-0.149-0.11-0.215-0.066-0.08-0.158-0.119-0.229-0.19-0.07-0.072-0.109-0.166-0.191-0.23L47.46 21.054c-0.095-0.074-0.208-0.097-0.308-0.157-0.161-0.099-0.313-0.192-0.494-0.256-0.177-0.062-0.353-0.083-0.537-0.107-0.118-0.016-0.221-0.07-0.344-0.07-0.053 0-0.095 0.026-0.147 0.031-0.182 0.009-0.352 0.059-0.529 0.106-0.168 0.044-0.333 0.078-0.486 0.153-0.143 0.066-0.261 0.168-0.39 0.26-0.158 0.114-0.311 0.222-0.439 0.368-0.034 0.037-0.082 0.054-0.113 0.093-0.076 0.095-0.097 0.209-0.16 0.311-0.095 0.158-0.187 0.31-0.25 0.487-0.063 0.181-0.086 0.361-0.11 0.548-0.016 0.114-0.068 0.217-0.068 0.336v17.235c0 0.119 0.053 0.223 0.068 0.337C43.177 40.915 43.201 41.095 43.264 41.276zM48.47 28.761l3.769 3.014-3.769 3.014V28.761z" fill="#ffffff" data-fill-palette-color="accent"></path></g></svg></g></svg></g></svg></g><defs></defs></svg><rect width="395.52" height="62.88577635384111" fill="none" stroke="none" visibility="hidden"></rect></g></svg></g></svg>